<svg xmlns="http://www.w3.org/2000/svg" width="1024" height="1024" version="1.0" viewBox="0 0 768 768"><path fill-rule="evenodd" fill="#155dfc" d="M140 56c-10 1-31 11-40 18-7 5-24 27-29 37-7 14-7 19-8 109l-1 88-5 10c-9 18-24 31-41 36l-8 2v53l7 3 20 10c12 8 14 10 20 23l7 13v88c1 83 2 89 5 98 12 32 38 58 69 66l36 4 25 1v-53l-16 1c-19 1-35-3-45-9-3-2-8-8-10-13l-5-10-1-90c-1-99-1-101-13-120a110 110 0 0 0-38-36l8-5c11-4 26-19 31-31 11-21 11-23 12-116l1-86 6-13 11-17c7-6 25-11 43-11h16V54h-24l-33 2m429 22v25h11c15 0 33 4 44 10 7 3 10 7 14 15 9 16 10 22 10 106 0 70 0 77 3 89l8 23c7 12 22 28 31 33l8 5-7 4c-7 4-29 25-34 34-8 17-8 16-9 110l-1 89-5 9c-6 12-14 20-29 27-9 4-14 5-28 6l-16 1v52h7c21 0 54-4 65-8 29-10 52-34 60-63 2-7 3-27 4-98 1-87 1-89 5-97 6-13 20-26 37-34l14-7v-47l-14-8a81 81 0 0 1-36-34l-5-10-1-86c-1-89-1-91-9-110-4-10-16-26-25-34-20-18-40-24-79-26l-23-1Zm-209 9c-26 9-46 33-51 60-3 13 0 28 8 44 7 14 17 24 32 32l8 4v30l1 30-131 131v45c0 52 1 47-17 61a75 75 0 0 0-32 56c-3 38 25 71 66 78s79-21 86-62c5-28-10-58-35-73l-11-7v-74l50-49 50-50 51 51 52 52v32l-1 34-10 7a76 76 0 0 0-38 78c8 49 61 76 107 55 29-13 47-46 42-77-4-23-15-41-33-54l-10-7-1-49v-47l-67-66-66-66v-29l1-29 9-5c27-13 43-46 38-76-7-39-36-64-76-64-8 0-17 2-22 4"/></svg>